<?xml version="1.0" encoding="utf-8"?>
<!-- Generator: Adobe Illustrator 17.0.0, SVG Export Plug-In . SVG Version: 6.00 Build 0)  -->
<!DOCTYPE svg PUBLIC "-//W3C//DTD SVG 1.1//EN" "http://www.w3.org/Graphics/SVG/1.1/DTD/svg11.dtd">
<svg version="1.1" id="Calque_1" xmlns="http://www.w3.org/2000/svg" xmlns:xlink="http://www.w3.org/1999/xlink" x="0px" y="0px"
	 width="24px" height="38px" viewBox="0 0 24 38" enable-background="new 0 0 24 38" xml:space="preserve">
<g>
	<circle fill="#FFFFFF" stroke="#000000" stroke-width="2" stroke-miterlimit="10" cx="12.009" cy="31.654" r="5.326"/>
	<g>
		<polygon points="13.191,21.925 10.827,21.925 10.827,25.472 13.191,25.472 		"/>
	</g>
	<path fill="#FFFFFF" stroke="#000000" stroke-width="3" stroke-miterlimit="10" d="M22.074,14.776c0,3.264-2.646,5.911-5.911,5.911
		H7.837c-3.264,0-5.911-2.646-5.911-5.911V8.841c0-3.264,2.646-5.911,5.911-5.911h8.326c3.264,0,5.911,2.646,5.911,5.911V14.776z"/>
	<g>
		<path d="M9.536,8.567c-0.895,0-1.621,0.726-1.621,1.621s0.726,1.621,1.621,1.621s1.621-0.726,1.621-1.621
			S10.431,8.567,9.536,8.567L9.536,8.567z"/>
	</g>
	<g>
		<path d="M14.98,8.567c-0.895,0-1.621,0.726-1.621,1.621s0.726,1.621,1.621,1.621s1.621-0.726,1.621-1.621
			S15.875,8.567,14.98,8.567L14.98,8.567z"/>
	</g>
	<path fill="none" stroke="#000000" stroke-width="2" stroke-linecap="round" stroke-linejoin="round" stroke-miterlimit="10" d="
		M8.406,15.603c0,0,7.263,0.912,8.195-0.607"/>
	<circle cx="12.026" cy="31.628" r="2"/>
</g>
</svg>
